<?xml version="1.0" standalone="no"?>
<!DOCTYPE svg PUBLIC "-//W3C//DTD SVG 20010904//EN"
 "http://www.w3.org/TR/2001/REC-SVG-20010904/DTD/svg10.dtd">
<svg version="1.0" xmlns="http://www.w3.org/2000/svg"
 width="512.000000pt" height="512.000000pt" viewBox="0 0 512.000000 512.000000"
 preserveAspectRatio="xMidYMid meet">

<g transform="translate(0.000000,512.000000) scale(0.100000,-0.100000)"
fill="#000000" stroke="none">
<path d="M1070 5104 c-221 -47 -408 -236 -455 -459 -10 -49 -15 -135 -15 -282
l0 -213 -200 0 -200 0 0 -200 0 -200 200 0 200 0 0 -500 0 -500 -200 0 -200 0
0 -200 0 -200 200 0 200 0 0 -500 0 -500 -200 0 -200 0 0 -200 0 -200 200 0
200 0 0 -202 c0 -140 5 -225 15 -273 47 -225 235 -413 460 -460 105 -22 3255
-22 3360 0 225 47 413 235 460 460 22 105 22 4065 0 4170 -47 225 -235 413
-460 460 -102 21 -3265 21 -3365 -1z m3346 -416 c21 -15 50 -44 64 -65 l25
-37 0 -2026 0 -2026 -25 -37 c-14 -21 -43 -50 -64 -65 l-39 -27 -1622 0 -1622
0 -39 27 c-21 15 -50 44 -64 65 -24 36 -25 42 -28 243 l-3 207 85 5 c98 5 147
30 187 95 34 54 34 152 0 206 -40 65 -89 90 -187 95 l-84 5 0 497 0 497 84 5
c98 5 147 30 187 95 34 54 34 152 0 206 -40 65 -89 90 -187 95 l-84 5 0 497 0
497 84 5 c70 4 91 9 124 30 61 41 87 90 87 168 0 78 -26 127 -87 168 -33 21
-54 26 -124 30 l-84 5 0 196 c0 108 5 212 10 233 13 44 81 115 124 127 18 6
692 9 1637 8 l1606 -2 39 -27z" fill="rgba(255,255,255,0.3)"/>
<path d="M2710 3761 c-325 -61 -565 -329 -587 -656 -10 -156 34 -320 118 -441
38 -53 40 -59 24 -69 -142 -82 -304 -223 -396 -345 -130 -173 -217 -406 -235
-632 l-7 -88 202 0 201 0 0 34 c0 49 25 171 49 240 128 365 526 595 903 522
342 -67 587 -312 654 -654 8 -41 14 -89 14 -108 l0 -34 201 0 202 0 -7 86
c-16 209 -81 399 -202 587 -86 132 -286 317 -416 383 l-49 25 29 42 c180 262
171 589 -22 844 -84 111 -231 209 -372 248 -69 19 -239 28 -304 16z m254 -425
c109 -54 170 -152 170 -276 0 -125 -61 -222 -172 -277 -47 -23 -70 -28 -132
-28 -95 1 -162 29 -223 94 -82 88 -107 207 -66 317 64 172 260 250 423 170z" fill="rgba(255,255,255,0.3)"/>
</g>
</svg>
